<svg width="36" height="40" viewBox="0 0 36 40" fill="none" xmlns="http://www.w3.org/2000/svg">
<path d="M23.2983 6.25C19.8933 6.25 16.8319 3.75 12.0771 3.75C10.5789 3.75 9.22291 3.99153 8.01548 4.36449C7.39667 4.55563 6.69757 3.95996 6.63119 3.31571C6.44995 1.5293 5.1401 0.124535 3.54846 0.00812912C1.61077 -0.13359 0 1.59618 0 3.75C0 6.12088 1.66331 8.42654 1.66331 10.7974V38.75C1.66331 39.4404 2.15973 40 2.77218 40H3.88105C4.49349 40 4.98992 39.4404 4.98992 38.75C4.98992 34.7472 7.16507 30.684 11.134 30.1647C11.9559 30.0572 12.8502 30 13.8488 30C17.2539 30 20.3153 32.5 25.0701 32.5C29.123 32.5 32.1372 30.733 33.9791 29.3765C34.9188 28.6845 35.4839 27.504 35.4839 26.2387V7.49508C35.4839 4.80297 33.0399 2.98196 30.8471 4.04844C28.3589 5.25852 25.7564 6.25 23.2983 6.25ZM32.1573 22.0189C32.1573 24.6927 30.9716 27.3803 28.4262 28.199C27.3814 28.5351 26.2395 28.75 25.0701 28.75C20.9157 28.75 18.0009 26.25 13.8488 26.25C9.69669 26.25 4.98992 23.1498 4.98992 18.9976V14.0911C4.98992 11.5058 6.13562 8.91392 8.58772 8.09467C9.66833 7.73364 10.8577 7.5 12.0771 7.5C16.2315 7.5 19.1462 10 23.2983 10C27.5198 10 32.1573 12.5597 32.1573 16.7811V22.0189Z" fill="#FF6666"/>
</svg>
