<svg width="95" height="90" viewBox="0 0 95 90" fill="none" xmlns="http://www.w3.org/2000/svg">
<path d="M59.9808 30.555L47.5234 42.471C43.1749 46.6304 36.3242 46.6343 31.9709 42.48C31.5482 42.0089 31.028 41.6263 30.443 41.3562C29.8579 41.0861 29.2207 40.9343 28.5713 40.9104C27.9219 40.8865 27.2743 40.9909 26.6692 41.2171C26.0641 41.4434 25.5145 41.7865 25.055 42.2251C24.5954 42.6636 24.2358 43.1881 23.9988 43.7655C23.7617 44.343 23.6523 44.961 23.6774 45.5807C23.7024 46.2005 23.8615 46.8086 24.1445 47.3669C24.4276 47.9252 24.8285 48.4216 25.3221 48.825L36.4035 59.445C36.8441 59.8621 37.3666 60.192 37.9412 60.416C38.5157 60.6399 39.1309 60.7534 39.7515 60.75C40.9885 60.745 42.174 60.2763 43.0523 59.445L66.6297 36.945C67.0716 36.5267 67.4224 36.029 67.6618 35.4806C67.9012 34.9322 68.0245 34.3441 68.0245 33.75C68.0245 33.1559 67.9012 32.5678 67.6618 32.0194C67.4224 31.471 67.0716 30.9733 66.6297 30.555C65.7462 29.7169 64.551 29.2464 63.3053 29.2464C62.0595 29.2464 60.8643 29.7169 59.9808 30.555ZM47.1548 0C37.8284 0 28.7115 2.6392 20.957 7.58387C13.2024 12.5285 7.15849 19.5566 3.58946 27.7792C0.0204314 36.0019 -0.91339 45.0499 0.906086 53.7791C2.72556 62.5082 7.21661 70.5264 13.8113 76.8198C20.406 83.1132 28.8082 87.399 37.9553 89.1353C47.1024 90.8717 56.5837 89.9805 65.2001 86.5746C73.8165 83.1686 81.181 77.4009 86.3625 70.0007C91.5439 62.6004 94.3095 53.9002 94.3095 45C94.3095 39.0905 93.0898 33.2389 90.72 27.7792C88.3503 22.3196 84.8769 17.3588 80.4982 13.1802C76.1195 9.00156 70.9212 5.68688 65.2001 3.42542C59.479 1.16396 53.3472 0 47.1548 0ZM47.1548 81C39.6937 81 32.4002 78.8886 26.1965 74.9329C19.9929 70.9772 15.1577 65.3547 12.3025 58.7766C9.4473 52.1985 8.70024 44.9601 10.1558 37.9767C11.6114 30.9934 15.2042 24.5788 20.48 19.5442C25.7558 14.5095 32.4775 11.0808 39.7952 9.69173C47.1129 8.30266 54.6979 9.01558 61.591 11.7403C68.4841 14.4651 74.3758 19.0793 78.5209 24.9995C82.6661 30.9196 84.8785 37.8799 84.8785 45C84.8785 54.5478 80.9041 63.7045 73.8295 70.4558C66.7549 77.2071 57.1597 81 47.1548 81Z" fill="#AD2B2B"/>
</svg>
